<svg id="Capa_1" enable-background="new 0 0 512 512" height="512" viewBox="0 0 512 512" width="512" xmlns="http://www.w3.org/2000/svg"><g><path d="m.375 269.98c-.311-5.781-.431-11.613-.352-17.489 1.885-140.681 115.836-252.788 256.53-252.49 141.13.298 255.447 114.798 255.447 255.999v.264c-.014 14.298-11.747 25.825-26.045 25.825h-472.718c-6.814 0-12.495-5.304-12.862-12.109z" fill="#40c1fa"/><path d="m456.332 256c0 110.64-89.692 200.332-200.332 200.332s-200.332-89.692-200.332-200.332 89.692-200.332 200.332-200.332 200.332 89.692 200.332 200.332z" fill="#72d1fb"/><path d="m152.39 106.428c0 8.284-6.716 15-15 15h-30.332c-8.284 0-15-6.716-15-15 0-8.284 6.716-15 15-15h30.332c8.284 0 15 6.716 15 15zm-67.058 50.667h-30.332c-8.284 0-15 6.716-15 15 0 8.284 6.716 15 15 15h30.332c8.284 0 15-6.716 15-15 0-8.284-6.716-15-15-15zm277.667-41.752c0 8.284 6.716 15 15 15h36.5c8.284 0 15-6.716 15-15s-6.716-15-15-15h-36.5c-8.285 0-15 6.715-15 15zm12.312-49.212c-.38-8.068-7.33-14.275-15.406-14.275-5.887 0-10.66-4.772-10.66-10.66v-4.34c0-8.284-6.716-15-15-15h-17.833c-8.284 0-15 6.716-15 15v4.34c0 5.887-4.772 10.66-10.66 10.66-8.077 0-15.027 6.207-15.406 14.275-.406 8.614 6.458 15.725 14.983 15.725h70c8.524.001 15.388-7.111 14.982-15.725zm100 135.239c-.38-8.068-7.33-14.275-15.406-14.275h-27.396c-8.284 0-15-6.716-15-15s-6.716-15-15-15h-57.396c-8.077 0-15.027 6.207-15.406 14.275-.406 8.614 6.458 15.725 14.983 15.725h15.638c8.284 0 15 6.716 15 15 0 8.284 6.716 15 15 15h70c8.525 0 15.389-7.111 14.983-15.725z" fill="#b4e7fd"/><path d="m66.962 428.631c-38.835-42.502-63.528-98.147-66.63-159.486 44.371-36.932 101.425-59.145 163.668-59.145 129.27 0 236.161 95.815 253.53 220.301h-346.757c-1.447 0-2.835-.602-3.811-1.67z" fill="#54a770"/><path d="m122.649 430.301h-51.876c-1.447 0-2.835-.602-3.812-1.67-38.835-42.502-63.527-98.147-66.63-159.486 44.372-36.932 101.426-59.145 163.669-59.145 22.931 0 45.157 3.015 66.305 8.67-9.985 1.307-19.999 3.217-30.002 5.753-16.662 4.225-32.524 9.995-47.472 17.119-72.779 34.682-88.768 131.563-31.083 187.884.3.292.6.584.901.875z" fill="#489160"/><path d="m229.55 372.783c43.543-79.149 127.733-132.783 224.45-132.783 19.887 0 39.245 2.268 57.829 6.559.114 3.133.171 6.28.171 9.441 0 35.742-7.325 69.772-20.555 100.673-4.172 9.745-13.702 16.109-24.303 16.109h-237.592z" fill="#489160"/><path d="m311.753 372.783h-82.203c43.543-79.149 127.733-132.783 224.45-132.783 17.068 0 33.746 1.67 49.879 4.857-82.463 9.829-152.892 58.859-192.126 127.926z" fill="#3d7a51"/><path d="m256 512c-11.592 0-23.004-.77-34.187-2.263-83.733-11.174-91.471-129.073-9.918-151.1 44.497-12.018 93.142-18.637 144.105-18.637 47.72 0 93.406 5.803 135.559 16.408-39.043 91.477-129.814 155.592-235.559 155.592z" fill="#82cd64"/><path d="m227.77 510.302c.184.073.368.146.552.219-27.668-2.975-54.016-10.357-78.328-21.432-1.284-.585-1.846-5.796-3.119-6.402-4.816-2.291-8.918-2.985-13.563-5.563-.658-.365-2.661 2.14-3.315 1.77-23.873-13.525-45.359-30.774-63.667-50.958 70.399-53.881 174.069-87.936 289.67-87.936 15.287 0 30.366.596 45.187 1.754-73.279 22.138-136.775 57.334-184.999 99.766-22.897 20.148-16.749 57.487 11.582 68.782z" fill="#6dc54a"/><path d="m330 450c0 16.569-35.817 30-80 30s-80-13.431-80-30 35.817-30 80-30 80 13.431 80 30z" fill="#489160"/><path d="m486.559 269.63c0 6.881-14.875 12.459-33.224 12.459s-33.224-5.578-33.224-12.459 14.875-12.459 33.224-12.459 33.224 5.578 33.224 12.459z" fill="#356845"/><path d="m247.038 479.98c-42.81-.584-77.038-13.783-77.038-29.98s34.228-29.396 77.038-29.98c-16.582 7.329-27.038 18.044-27.038 29.98s10.456 22.651 27.038 29.98z" fill="#356845"/><path d="m140 300v-282.843l234.614 132.717c6.768 3.829 6.768 13.579 0 17.408z" fill="#f44545"/><path d="m374.614 167.283-66.724 37.745c-54.494 30.827-121.996-8.542-121.996-71.151v-90.758l188.719 106.756c6.769 3.829 6.769 13.579.001 17.408z" fill="#fb5858"/><path d="m150 350v139.092c-6.833-3.112-13.505-6.516-20-10.196v-128.896c0-5.523 4.477-10 10-10s10 4.477 10 10z" fill="#edc472"/><path d="m140 440c-5.523 0-10-4.477-10-10v-420c0-5.523 4.477-10 10-10 5.523 0 10 4.477 10 10v420c0 5.523-4.477 10-10 10z" fill="#ffde91"/><path d="m372.582 406.25c0 22.344-18.114 40.458-40.458 40.458s-40.458-18.114-40.458-40.458 18.114-40.458 40.458-40.458c22.345 0 40.458 18.114 40.458 40.458z" fill="#d5f1fe"/><path d="m322 422.833c0 4.142-3.358 7.5-7.5 7.5s-7.5-3.358-7.5-7.5 3.358-7.5 7.5-7.5 7.5 3.358 7.5 7.5z" fill="#93dcfc"/><path d="m332.125 365.792c-5.769 0-11.255 1.207-16.221 3.383-2.176 4.966-3.383 10.452-3.383 16.221 0 22.344 18.114 40.458 40.458 40.458 5.769 0 11.255-1.207 16.221-3.383 2.176-4.966 3.383-10.452 3.383-16.221-.001-22.344-18.114-40.458-40.458-40.458zm1.375 41.583c-4.142 0-7.5-3.358-7.5-7.5s3.358-7.5 7.5-7.5 7.5 3.358 7.5 7.5-3.358 7.5-7.5 7.5zm9.051-20.125c-4.142 0-7.5-3.358-7.5-7.5s3.358-7.5 7.5-7.5 7.5 3.358 7.5 7.5-3.357 7.5-7.5 7.5zm13.574 34c-4.142 0-7.5-3.358-7.5-7.5s3.358-7.5 7.5-7.5 7.5 3.358 7.5 7.5-3.358 7.5-7.5 7.5z" fill="#fff5f5"/></g></svg>