<?xml version="1.0" encoding="iso-8859-1"?>
<!-- Generator: Adobe Illustrator 19.0.0, SVG Export Plug-In . SVG Version: 6.00 Build 0)  -->
<svg version="1.1" id="Capa_1" xmlns="http://www.w3.org/2000/svg" xmlns:xlink="http://www.w3.org/1999/xlink" x="0px" y="0px"
	 viewBox="0 0 512.067 512.067" style="enable-background:new 0 0 512.067 512.067;" xml:space="preserve">
<g transform="translate(-1)">
	<g>
		<g>
			<path d="M414.204,122.309C395.983,50.372,331.243-0.009,257.033,0c-74.07-0.019-138.73,50.174-157.08,121.935
				c-18.35,71.761,14.278,146.832,79.264,182.372c-0.011,0.288-0.092,0.552-0.092,0.844c0,15.812,15.029,40.117,39.267,51.788
				c5.217,3.354,14.737,34.763,13.467,129.558c-0.158,9.092,4.608,17.56,12.461,22.144c7.854,4.584,17.57,4.569,25.41-0.04
				c7.839-4.609,12.578-13.092,12.392-22.183c-1.696-94.767,7.625-126.133,12.75-129.458c24.329-11.716,39.387-36.012,39.387-51.808
				c0-0.16-0.046-0.301-0.049-0.46C399.474,269.371,432.425,194.246,414.204,122.309z M287.496,341.567
				c-6.787,3.233-24.825,11.825-22.437,145.242c0.065,2.119-0.737,4.173-2.221,5.688c-3.239,3.134-8.377,3.142-11.625,0.017
				c-1.511-1.525-2.337-3.599-2.288-5.746c1.787-133.333-16.308-141.954-23.088-145.183c-12.325-5.942-22.144-16.061-27.711-28.559
				c37.55,14.883,79.343,14.993,116.971,0.309C309.481,325.683,299.715,335.673,287.496,341.567z M257.033,307.2
				c-80.118,0-145.067-64.949-145.067-145.067S176.915,17.067,257.033,17.067S402.1,82.015,402.1,162.133
				C402.011,242.214,337.115,307.111,257.033,307.2z"/>
			<path d="M157.875,214.013c-3.178-1.338-6.849-0.629-9.3,1.796c-3.3,3.365-3.3,8.752,0,12.117
				c0.416,0.388,0.873,0.731,1.362,1.021c0.436,0.338,0.926,0.599,1.45,0.771c0.485,0.245,1.003,0.418,1.538,0.513
				c0.565,0.098,1.136,0.156,1.709,0.171c1.119,0.029,2.229-0.205,3.242-0.683c1.033-0.434,1.986-1.04,2.817-1.792
				c3.3-3.365,3.3-8.752,0-12.117C159.862,215.054,158.909,214.446,157.875,214.013z"/>
			<path d="M194.825,232.875c-0.429-0.341-0.854-0.683-1.279-1.025c-0.476-0.324-0.993-0.583-1.538-0.771
				c-0.484-0.246-1.002-0.417-1.537-0.508c-2.809-0.562-5.715,0.301-7.763,2.304c-1.56,1.635-2.444,3.799-2.475,6.059
				c0.013,0.572,0.07,1.141,0.171,1.704c0.091,0.535,0.263,1.053,0.508,1.537c0.188,0.544,0.447,1.062,0.771,1.538
				c0.341,0.425,0.683,0.85,1.025,1.279c1.636,1.558,3.8,2.441,6.059,2.475c0.571-0.016,1.141-0.073,1.704-0.171
				c0.535-0.095,1.053-0.268,1.538-0.513c0.544-0.187,1.062-0.447,1.538-0.771c0.929-0.585,1.715-1.371,2.3-2.3
				c0.324-0.476,0.583-0.993,0.771-1.538c0.245-0.485,0.418-1.003,0.513-1.538c0.098-0.563,0.155-1.133,0.171-1.704
				C197.267,236.674,196.383,234.511,194.825,232.875z"/>
			<path d="M228.959,241.408c-0.816-0.772-1.772-1.382-2.817-1.796c-2.079-0.85-4.409-0.85-6.487,0
				c-1.033,0.434-1.984,1.041-2.813,1.796c-3.3,3.365-3.3,8.752,0,12.117c0.83,0.752,1.781,1.358,2.813,1.792
				c2.067,0.911,4.421,0.911,6.487,0c1.033-0.434,1.986-1.04,2.817-1.792C232.258,250.16,232.258,244.773,228.959,241.408
				L228.959,241.408z"/>
			<path d="M210.613,265.983c-0.476-0.324-0.993-0.583-1.538-0.771c-0.484-0.246-1.002-0.417-1.538-0.508
				c-2.81-0.574-5.721,0.29-7.763,2.304c-1.559,1.635-2.443,3.799-2.475,6.058c0.013,0.572,0.071,1.141,0.171,1.704
				c0.091,0.535,0.263,1.053,0.508,1.538c0.187,0.544,0.447,1.062,0.771,1.538c0.341,0.425,0.683,0.85,1.025,1.279
				c1.636,1.558,3.8,2.441,6.058,2.475c0.571-0.016,1.141-0.073,1.704-0.171c0.535-0.095,1.053-0.268,1.538-0.512
				c0.544-0.188,1.062-0.447,1.538-0.771c0.425-0.337,0.85-0.679,1.279-1.021c0.341-0.429,0.683-0.854,1.021-1.279
				c0.324-0.476,0.583-0.993,0.771-1.538c0.245-0.485,0.418-1.003,0.513-1.538c0.098-0.563,0.155-1.133,0.171-1.704
				c-0.033-2.259-0.917-4.422-2.475-6.059C211.487,266.641,211.059,266.299,210.613,265.983z"/>
			<path d="M246.025,275.541c-0.429-0.341-0.854-0.683-1.279-1.025c-0.476-0.324-0.993-0.583-1.538-0.771
				c-0.484-0.246-1.002-0.417-1.538-0.508c-2.81-0.574-5.721,0.29-7.763,2.304c-0.754,0.828-1.362,1.78-1.796,2.813
				c-0.437,1.027-0.668,2.13-0.679,3.246c0.032,2.259,0.916,4.423,2.475,6.059c0.404,0.368,0.831,0.709,1.279,1.021
				c0.475,0.323,0.991,0.582,1.533,0.771c0.485,0.245,1.003,0.418,1.538,0.513c0.565,0.094,1.136,0.151,1.709,0.171
				c0.571-0.016,1.141-0.073,1.704-0.171c0.535-0.095,1.053-0.268,1.538-0.513c0.544-0.188,1.062-0.447,1.538-0.771
				c0.447-0.314,0.874-0.655,1.279-1.021c1.557-1.637,2.44-3.8,2.475-6.059c-0.013-1.116-0.245-2.219-0.683-3.246
				C247.383,277.322,246.777,276.371,246.025,275.541z"/>
			<path d="M280.159,275.541c-0.83-0.754-1.782-1.362-2.817-1.796c-3.178-1.338-6.849-0.629-9.301,1.796
				c-0.754,0.828-1.362,1.78-1.796,2.813c-0.437,1.027-0.667,2.13-0.679,3.246c0,4.713,3.82,8.533,8.533,8.533
				s8.533-3.82,8.533-8.533c-0.013-1.116-0.245-2.219-0.683-3.246C281.516,277.322,280.91,276.371,280.159,275.541z"/>
			<path d="M313.013,265.983c-0.476-0.324-0.993-0.583-1.538-0.771c-0.484-0.246-1.002-0.417-1.538-0.508
				c-2.81-0.574-5.721,0.29-7.763,2.304c-1.559,1.635-2.443,3.799-2.475,6.058c0.013,0.572,0.07,1.141,0.171,1.704
				c0.091,0.535,0.263,1.053,0.508,1.538c0.188,0.544,0.447,1.062,0.771,1.538c0.341,0.425,0.683,0.85,1.025,1.279
				c1.636,1.558,3.8,2.441,6.059,2.475c0.571-0.016,1.141-0.073,1.704-0.171c0.535-0.095,1.053-0.268,1.538-0.512
				c0.544-0.188,1.062-0.447,1.538-0.771c0.425-0.337,0.85-0.679,1.279-1.021c0.341-0.429,0.683-0.854,1.021-1.279
				c0.324-0.476,0.583-0.993,0.771-1.538c0.245-0.485,0.418-1.003,0.513-1.538c0.098-0.563,0.155-1.133,0.171-1.704
				c-0.033-2.259-0.917-4.422-2.475-6.059C313.887,266.641,313.459,266.299,313.013,265.983z"/>
			<path d="M263.092,241.409L263.092,241.409c-2.165-2.165-5.319-3.011-8.276-2.218c-2.957,0.792-5.266,3.102-6.059,6.059
				c-0.792,2.957,0.053,6.112,2.218,8.276c0.404,0.368,0.831,0.709,1.279,1.021c0.475,0.323,0.991,0.582,1.533,0.771
				c0.485,0.245,1.003,0.418,1.538,0.513c0.565,0.094,1.136,0.151,1.709,0.17c0.571-0.016,1.141-0.073,1.704-0.171
				c0.535-0.095,1.053-0.268,1.537-0.513c0.544-0.187,1.062-0.447,1.538-0.771c0.447-0.314,0.874-0.655,1.279-1.021
				C266.392,250.161,266.392,244.773,263.092,241.409z"/>
			<path d="M297.225,241.409L297.225,241.409c-0.429-0.342-0.854-0.684-1.279-1.026c-0.476-0.324-0.993-0.583-1.538-0.771
				c-0.484-0.246-1.002-0.417-1.538-0.508c-2.808-0.531-5.699,0.327-7.763,2.304c-0.341,0.425-0.683,0.85-1.025,1.363
				c-0.338,0.436-0.599,0.926-0.771,1.45c-0.246,0.484-0.417,1.002-0.508,1.538c-0.096,0.565-0.153,1.136-0.171,1.709
				c-0.022,2.27,0.87,4.453,2.475,6.058c1.605,1.605,3.788,2.497,6.058,2.475c0.571-0.016,1.141-0.073,1.704-0.171
				c0.535-0.095,1.053-0.268,1.538-0.513c0.544-0.187,1.062-0.447,1.538-0.771c0.447-0.314,0.874-0.655,1.279-1.021
				C300.525,250.161,300.525,244.773,297.225,241.409z"/>
			<path d="M330.079,231.85c-0.476-0.324-0.993-0.583-1.538-0.771c-0.484-0.246-1.002-0.417-1.538-0.508
				c-2.81-0.574-5.721,0.29-7.763,2.304c-1.559,1.635-2.443,3.799-2.475,6.058c0.013,0.572,0.071,1.141,0.171,1.704
				c0.091,0.535,0.263,1.053,0.508,1.537c0.187,0.544,0.447,1.062,0.771,1.538c0.341,0.425,0.683,0.85,1.025,1.279
				c1.636,1.558,3.8,2.441,6.058,2.475c0.571-0.016,1.141-0.073,1.704-0.171c0.535-0.095,1.053-0.268,1.538-0.513
				c0.544-0.187,1.062-0.447,1.538-0.771c0.929-0.585,1.715-1.371,2.3-2.3c0.324-0.476,0.583-0.993,0.771-1.538
				c0.245-0.485,0.418-1.003,0.513-1.538c0.098-0.563,0.155-1.133,0.171-1.704c-0.033-2.259-0.917-4.422-2.475-6.059
				C330.929,232.533,330.504,232.192,330.079,231.85z"/>
			<path d="M362.675,214.012c-2.061-0.938-4.427-0.937-6.488,0c-1.033,0.434-1.984,1.041-2.813,1.796
				c-1.559,1.635-2.443,3.799-2.475,6.059c0.014,0.572,0.071,1.141,0.171,1.704c0.091,0.535,0.263,1.053,0.508,1.538
				c0.187,0.544,0.447,1.062,0.771,1.538c0.341,0.425,0.683,0.85,1.025,1.279c0.83,0.752,1.781,1.358,2.813,1.792
				c2.067,0.911,4.421,0.911,6.487,0c1.033-0.434,1.986-1.04,2.817-1.792c0.341-0.429,0.683-0.854,1.021-1.279
				c0.324-0.476,0.583-0.993,0.771-1.538c0.245-0.485,0.418-1.003,0.513-1.538c0.098-0.563,0.155-1.133,0.171-1.704
				c-0.033-2.259-0.917-4.422-2.475-6.059C364.662,215.054,363.71,214.446,362.675,214.012z"/>
			<path d="M143.625,173.141c-2.493-2.347-6.116-3.046-9.304-1.796c-1.033,0.434-1.985,1.041-2.813,1.796
				c-1.559,1.635-2.443,3.799-2.475,6.059c0.012,1.115,0.243,2.216,0.679,3.242c0.78,2.141,2.467,3.828,4.608,4.608
				c1.027,0.438,2.13,0.67,3.246,0.684c2.259-0.034,4.422-0.918,6.059-2.475c0.752-0.831,1.358-1.783,1.792-2.817
				c0.437-1.026,0.669-2.127,0.683-3.242C146.067,176.941,145.183,174.778,143.625,173.141z"/>
			<path d="M179.55,193.021c-0.78-2.141-2.467-3.828-4.608-4.608c-2.079-0.85-4.409-0.85-6.487,0
				c-2.139,0.784-3.824,2.469-4.608,4.608c-0.437,1.027-0.668,2.13-0.68,3.246c0.032,2.259,0.916,4.423,2.475,6.059
				c0.83,0.752,1.781,1.358,2.813,1.792c2.067,0.911,4.421,0.911,6.487,0c1.033-0.434,1.986-1.04,2.817-1.792
				c1.557-1.637,2.441-3.8,2.475-6.059C180.22,195.15,179.988,194.048,179.55,193.021z"/>
			<path d="M382.559,173.141c-0.83-0.754-1.782-1.362-2.817-1.796c-1.557-0.679-3.288-0.857-4.95-0.508
				c-0.535,0.091-1.053,0.263-1.538,0.508c-0.543,0.188-1.058,0.448-1.533,0.771c-0.448,0.314-0.876,0.656-1.279,1.025
				c-1.559,1.635-2.443,3.799-2.475,6.059c0.012,1.115,0.243,2.216,0.679,3.242c0.434,1.034,1.041,1.987,1.796,2.817
				c1.636,1.558,3.8,2.441,6.059,2.475c1.115-0.014,2.216-0.246,3.242-0.683c2.143-0.777,3.831-2.465,4.608-4.608
				c0.438-1.026,0.67-2.127,0.684-3.242C385,176.941,384.116,174.778,382.559,173.141z"/>
			<path d="M350.217,193.021c-0.78-2.141-2.467-3.828-4.608-4.608c-2.079-0.85-4.409-0.85-6.487,0
				c-2.139,0.784-3.824,2.469-4.608,4.608c-0.437,1.027-0.668,2.13-0.68,3.246c0.032,2.259,0.916,4.423,2.475,6.059
				c0.83,0.752,1.781,1.358,2.813,1.792c2.067,0.911,4.421,0.911,6.487,0c1.033-0.434,1.986-1.04,2.817-1.792
				c1.557-1.637,2.441-3.8,2.475-6.059C350.887,195.15,350.655,194.048,350.217,193.021z"/>
			<path d="M199.775,210.859c0.83,0.752,1.781,1.358,2.813,1.792c2.067,0.911,4.421,0.911,6.487,0
				c2.143-0.777,3.831-2.465,4.608-4.608c0.911-2.067,0.911-4.421,0-6.487c-0.78-2.141-2.467-3.828-4.608-4.608
				c-2.079-0.85-4.409-0.85-6.487,0c-2.139,0.784-3.824,2.469-4.608,4.608c-0.906,2.068-0.906,4.42,0,6.487
				C198.413,209.077,199.021,210.029,199.775,210.859z"/>
			<path d="M239.967,221.867c2.27,0.022,4.453-0.87,6.058-2.475c1.605-1.605,2.497-3.788,2.475-6.058
				c-0.015-0.573-0.072-1.144-0.171-1.708c-0.095-0.535-0.268-1.053-0.513-1.538c-0.172-0.524-0.433-1.014-0.771-1.45
				c-0.29-0.49-0.632-0.947-1.021-1.363c-3.421-3.158-8.695-3.158-12.117,0c-0.341,0.425-0.683,0.85-1.025,1.363
				c-0.338,0.436-0.599,0.926-0.771,1.45c-0.246,0.484-0.417,1.002-0.508,1.538c-0.101,0.564-0.158,1.136-0.171,1.709
				c-0.022,2.27,0.87,4.453,2.475,6.058S237.697,221.889,239.967,221.867z"/>
			<path d="M274.1,221.867c2.27,0.022,4.453-0.87,6.058-2.475s2.497-3.788,2.475-6.058c-0.015-0.573-0.072-1.144-0.171-1.708
				c-0.095-0.535-0.268-1.053-0.513-1.538c-0.172-0.524-0.433-1.014-0.771-1.45c-0.29-0.49-0.632-0.947-1.021-1.363
				c-3.421-3.158-8.695-3.158-12.117,0c-0.39,0.416-0.733,0.873-1.025,1.363c-0.338,0.436-0.599,0.926-0.771,1.45
				c-0.246,0.484-0.417,1.002-0.508,1.538c-0.101,0.564-0.158,1.136-0.171,1.709c-0.022,2.27,0.87,4.453,2.475,6.058
				C269.647,220.997,271.83,221.889,274.1,221.867z"/>
			<path d="M302.175,210.859c1.636,1.558,3.8,2.441,6.059,2.475c1.115-0.014,2.216-0.246,3.242-0.683
				c1.044-0.414,1.999-1.022,2.817-1.792c0.752-0.831,1.358-1.784,1.792-2.817c0.911-2.067,0.911-4.421,0-6.487
				c-0.434-1.032-1.04-1.983-1.792-2.813c-0.816-0.772-1.772-1.382-2.817-1.796c-3.178-1.338-6.849-0.629-9.3,1.796
				c-0.754,0.828-1.362,1.78-1.796,2.813c-0.906,2.068-0.906,4.42,0,6.487C300.813,209.076,301.42,210.029,302.175,210.859z"/>
		</g>
	</g>
</g>
<g>
</g>
<g>
</g>
<g>
</g>
<g>
</g>
<g>
</g>
<g>
</g>
<g>
</g>
<g>
</g>
<g>
</g>
<g>
</g>
<g>
</g>
<g>
</g>
<g>
</g>
<g>
</g>
<g>
</g>
</svg>
